USFL
nRows=135
nColumns=2
inDegrees=yes
endheader
time	med_gas_r	
2.6875	 52.147325	
2.75	 51.946993	
2.8125	 51.766587	
2.875	 51.701085	
2.9375	 51.716733	
3	 51.740595	
3.0625	 51.781789	
3.125	 51.824141	
3.1875	 51.889871	
3.25	 51.851609	
3.3125	 51.863377	
3.375	 51.930367	
3.4375	 52.009233	
3.5	 52.017408	
3.5625	 51.954643	
3.625	 51.946141	
3.6875	 51.914380	
3.75	 51.929440	
3.8125	 51.849003	
3.875	 51.936975	
3.9375	 52.203456	
4	 52.239585	
4.0625	 52.399865	
4.125	 48.050946	
4.1875	 48.075458	
4.25	 48.127441	
4.3125	 46.622002	
4.375	 44.602423	
4.4375	 38.886896	
4.5	 35.458524	
4.5625	 35.627778	
4.625	 32.037807	
4.6875	 28.842562	
4.75	 29.138027	
4.8125	 29.396508	
4.875	 29.314072	
4.9375	 30.813977	
5	 30.838808	
5.0625	 31.018540	
5.125	 30.967981	
5.1875	 31.190389	
5.25	 31.347854	
5.3125	 31.412817	
5.375	 31.248894	
5.4375	 31.394473	
5.5	 31.406609	
5.5625	 31.345805	
5.625	 31.239663	
5.6875	 31.206887	
5.75	 31.332064	
5.8125	 31.451640	
5.875	 31.488981	
5.9375	 31.503693	
6	 31.547859	
6.0625	 33.869024	
6.125	 34.623490	
6.1875	 34.444177	
6.25	 34.411079	
6.3125	 34.345429	
6.375	 35.933286	
6.4375	 36.013625	
6.5	 36.028109	
6.5625	 36.067896	
6.625	 35.796123	
6.6875	 35.797857	
6.75	 35.712906	
6.8125	 35.976341	
6.875	 36.012648	
6.9375	 36.234144	
7	 36.246069	
7.0625	 36.592876	
7.125	 36.707929	
7.1875	 36.800843	
7.25	 36.524239	
7.3125	 36.636892	
7.375	 36.511616	
7.4375	 36.526005	
7.5	 36.491548	
7.5625	 36.569540	
7.625	 36.758899	
7.6875	 36.839494	
7.75	 37.009931	
7.8125	 37.027564	
7.875	 36.964967	
7.9375	 37.057368	
8	 36.829673	
8.0625	 37.083486	
8.125	 37.175073	
8.1875	 37.072021	
8.25	 37.182056	
8.3125	 37.188109	
8.375	 37.139969	
8.4375	 37.070700	
8.5	 37.169954	
8.5625	 37.129662	
8.625	 37.168627	
8.6875	 37.115745	
8.75	 37.247203	
8.8125	 37.228170	
8.875	 37.219689	
8.9375	 37.179542	
9	 37.106452	
9.0625	 37.165437	
9.125	 37.216898	
9.1875	 38.364731	
9.25	 41.499575	
9.3125	 45.049923	
9.375	 46.772087	
9.4375	 47.661716	
9.5	 47.682817	
9.5625	 49.376556	
9.625	 50.879782	
9.6875	 51.527835	
9.75	 51.435910	
9.8125	 51.398619	
9.875	 53.777454	
9.9375	 53.697451	
10	 53.624869	
10.0625	 53.659199	
10.125	 53.569826	
10.1875	 53.429911	
10.25	 53.371791	
10.3125	 53.306695	
10.375	 53.323341	
10.4375	 53.254080	
10.5	 53.166925	
10.5625	 53.184573	
10.625	 53.062876	
10.6875	 52.993652	
10.75	 52.967857	
10.8125	 52.828912	
10.875	 52.568053	
10.9375	 52.527252	
11	 52.643622	
11.0625	 52.633345	
